<!-- <svg height="30" viewBox="0 0 123 30" width="123" xmlns="http://www.w3.org/2000/svg"><text fill="#293651" font-family="Montserrat" font-size="22" font-weight="700" x=".291" y="23.447">Free<tspan fill="#00a78e">lancer</tspan></text></svg> -->
<!-- <svg width="130" height="130" viewBox="0 0 130 130" fill="none" xmlns="http://www.w3.org/2000/svg">
<circle cx="65" cy="65" r="65" fill="#47D744"/>
<circle cx="51.1421" cy="51.4264" r="10" transform="rotate(-45 51.1421 51.4264)" fill="white"/>
<circle cx="79" cy="51.1422" r="10" transform="rotate(-135 79 51.1422)" fill="white"/>
<circle cx="51.1426" cy="79.4265" r="10" transform="rotate(-135 51.1426 79.4265)" fill="white"/>
<circle cx="79.1421" cy="79.4264" r="10" transform="rotate(-45 79.1421 79.4264)" fill="white"/>
</svg> -->
<!-- <svg width="60" height="62" viewBox="0 0 60 62" fill="none" xmlns="http://www.w3.org/2000/svg">
<ellipse cx="30" cy="31" rx="30" ry="31" fill="#47D744"/>
<circle r="4.69294" transform="matrix(0.695421 -0.718602 0.695421 0.718602 23.6033 24.5265)" fill="white"/>
<circle r="4.69294" transform="matrix(-0.695421 -0.718602 0.695421 -0.718602 36.4609 24.3909)" fill="white"/>
<circle r="4.69294" transform="matrix(-0.695421 -0.718602 0.695421 -0.718602 23.6035 37.8803)" fill="white"/>
<circle r="4.69294" transform="matrix(0.695421 -0.718602 0.695421 0.718602 36.5271 37.8802)" fill="white"/>
</svg> -->


<svg width="251" height="62" viewBox="0 0 251 62" fill="none" xmlns="http://www.w3.org/2000/svg">
<ellipse cx="30" cy="31" rx="30" ry="31" fill="#47D744"/>
<circle r="4.69294" transform="matrix(0.695421 -0.718602 0.695421 0.718602 23.6033 24.5265)" fill="white"/>
<circle r="4.69294" transform="matrix(-0.695421 -0.718602 0.695421 -0.718602 36.4609 24.3909)" fill="white"/>
<circle r="4.69294" transform="matrix(-0.695421 -0.718602 0.695421 -0.718602 23.6035 37.8803)" fill="white"/>
<circle r="4.69294" transform="matrix(0.695421 -0.718602 0.695421 0.718602 36.5271 37.8802)" fill="white"/>
<path d="M73.6 18.08C74.72 17.9467 75.92 17.8533 77.2 17.8C78.5067 17.72 79.88 17.68 81.32 17.68C83.0533 17.68 84.6 17.8933 85.96 18.32C87.32 18.7467 88.4667 19.3333 89.4 20.08C90.3333 20.8267 91.04 21.7333 91.52 22.8C92 23.84 92.24 24.9733 92.24 26.2C92.24 27.6933 91.9467 29.0267 91.36 30.2C90.8 31.3467 90 32.32 88.96 33.12C87.9467 33.92 86.72 34.5333 85.28 34.96C83.84 35.36 82.2533 35.56 80.52 35.56C79.4 35.56 78.36 35.52 77.4 35.44V46H73.6V18.08ZM81 32.4C83.4 32.4 85.24 31.88 86.52 30.84C87.8267 29.7733 88.48 28.3333 88.48 26.52C88.48 24.7867 87.8533 23.4133 86.6 22.4C85.3733 21.3867 83.5867 20.88 81.24 20.88C80.52 20.88 79.84 20.8933 79.2 20.92C78.56 20.9467 77.96 20.9867 77.4 21.04V32.2C77.8267 32.2533 78.3333 32.3067 78.92 32.36C79.5333 32.3867 80.2267 32.4 81 32.4ZM94.8342 31.96C94.8342 29.9067 95.1275 28 95.7142 26.24C96.3275 24.48 97.1942 22.96 98.3142 21.68C99.4609 20.3733 100.848 19.36 102.474 18.64C104.101 17.8933 105.954 17.52 108.034 17.52C110.088 17.52 111.928 17.9067 113.554 18.68C115.208 19.4267 116.594 20.4533 117.714 21.76C118.861 23.0667 119.741 24.6 120.354 26.36C120.968 28.0933 121.274 29.96 121.274 31.96C121.274 33.96 120.968 35.84 120.354 37.6C119.768 39.36 118.901 40.9067 117.754 42.24C116.608 43.5467 115.221 44.5867 113.594 45.36C111.968 46.1067 110.114 46.48 108.034 46.48C105.954 46.48 104.101 46.1067 102.474 45.36C100.848 44.5867 99.4609 43.5467 98.3142 42.24C97.1942 40.9067 96.3275 39.36 95.7142 37.6C95.1275 35.84 94.8342 33.96 94.8342 31.96ZM98.7142 31.96C98.7142 33.4 98.9142 34.8 99.3142 36.16C99.7409 37.52 100.354 38.72 101.154 39.76C101.954 40.8 102.928 41.64 104.074 42.28C105.248 42.8933 106.568 43.2 108.034 43.2C109.581 43.2 110.928 42.92 112.074 42.36C113.248 41.7733 114.221 40.9867 114.994 40C115.794 38.9867 116.394 37.8 116.794 36.44C117.194 35.0533 117.394 33.56 117.394 31.96C117.394 30.52 117.181 29.1333 116.754 27.8C116.328 26.4667 115.714 25.28 114.914 24.24C114.114 23.2 113.128 22.3733 111.954 21.76C110.808 21.12 109.501 20.8 108.034 20.8C106.568 20.8 105.248 21.0933 104.074 21.68C102.928 22.24 101.954 23.0267 101.154 24.04C100.354 25.0267 99.7409 26.2 99.3142 27.56C98.9142 28.92 98.7142 30.3867 98.7142 31.96ZM126.456 18.08C127.709 17.9467 128.936 17.8533 130.136 17.8C131.336 17.72 132.709 17.68 134.256 17.68C136.656 17.68 138.723 18.0533 140.456 18.8C142.189 19.5467 143.629 20.5733 144.776 21.88C145.923 23.1867 146.763 24.7067 147.296 26.44C147.856 28.1733 148.136 30.0133 148.136 31.96C148.136 33.9067 147.856 35.76 147.296 37.52C146.736 39.2533 145.869 40.7733 144.696 42.08C143.549 43.3867 142.069 44.4267 140.256 45.2C138.469 45.9467 136.323 46.32 133.816 46.32C132.296 46.32 130.963 46.28 129.816 46.2C128.696 46.1467 127.576 46.0533 126.456 45.92V18.08ZM134.136 20.96C133.363 20.96 132.656 20.9867 132.016 21.04C131.376 21.0667 130.789 21.1067 130.256 21.16V42.8C130.816 42.88 131.403 42.9333 132.016 42.96C132.629 42.9867 133.269 43 133.936 43C135.723 43 137.269 42.7333 138.576 42.2C139.883 41.64 140.949 40.88 141.776 39.92C142.629 38.9333 143.256 37.7733 143.656 36.44C144.056 35.08 144.256 33.5867 144.256 31.96C144.256 30.52 144.056 29.1467 143.656 27.84C143.256 26.5067 142.643 25.3333 141.816 24.32C140.989 23.28 139.936 22.4667 138.656 21.88C137.376 21.2667 135.869 20.96 134.136 20.96ZM155.594 31.96C155.594 33.64 155.807 35.1733 156.234 36.56C156.687 37.92 157.3 39.0933 158.074 40.08C158.874 41.0667 159.82 41.8267 160.914 42.36C162.007 42.8933 163.207 43.16 164.514 43.16C165.82 43.16 166.954 43.0133 167.914 42.72C168.874 42.4 169.807 41.9733 170.714 41.44L171.874 44.6C170.887 45.1333 169.754 45.5867 168.474 45.96C167.22 46.3067 165.754 46.48 164.074 46.48C162.234 46.48 160.554 46.1467 159.034 45.48C157.54 44.8133 156.247 43.8667 155.154 42.64C154.06 41.3867 153.207 39.88 152.594 38.12C152.007 36.3333 151.714 34.3333 151.714 32.12C151.714 29.9867 152.007 28.0267 152.594 26.24C153.207 24.4533 154.074 22.92 155.194 21.64C156.314 20.3333 157.66 19.32 159.234 18.6C160.834 17.88 162.607 17.52 164.554 17.52C165.914 17.52 167.127 17.6533 168.194 17.92C169.287 18.16 170.314 18.5067 171.274 18.96L170.114 22.16C169.287 21.76 168.434 21.44 167.554 21.2C166.7 20.96 165.687 20.84 164.514 20.84C163.234 20.84 162.047 21.0933 160.954 21.6C159.86 22.08 158.914 22.8 158.114 23.76C157.314 24.72 156.687 25.8933 156.234 27.28C155.807 28.64 155.594 30.2 155.594 31.96ZM173.455 45L184.415 18H188.575L199.375 45L195.895 46.4L192.775 38.4H179.815L176.695 46.32L173.455 45ZM181.015 35.2H191.535L186.295 21.76L181.015 35.2ZM202.486 40.44C203.446 41.24 204.526 41.8933 205.726 42.4C206.926 42.9067 208.326 43.16 209.926 43.16C211.846 43.16 213.366 42.76 214.486 41.96C215.606 41.16 216.166 40.08 216.166 38.72C216.166 38.16 216.086 37.64 215.926 37.16C215.766 36.68 215.446 36.2267 214.966 35.8C214.513 35.3467 213.86 34.9067 213.006 34.48C212.18 34.0267 211.1 33.5467 209.766 33.04C208.326 32.48 207.1 31.9333 206.086 31.4C205.1 30.84 204.3 30.24 203.686 29.6C203.073 28.9333 202.633 28.2133 202.366 27.44C202.1 26.64 201.966 25.7333 201.966 24.72C201.966 23.7333 202.166 22.8 202.566 21.92C202.993 21.04 203.606 20.28 204.406 19.64C205.233 18.9733 206.233 18.4533 207.406 18.08C208.606 17.7067 209.966 17.52 211.486 17.52C213.14 17.52 214.62 17.6933 215.926 18.04C217.233 18.36 218.526 18.8267 219.806 19.44L218.406 22.68C217.5 22.1467 216.433 21.7067 215.206 21.36C214.006 20.9867 212.74 20.8 211.406 20.8C209.646 20.8 208.26 21.1467 207.246 21.84C206.233 22.5067 205.726 23.4 205.726 24.52C205.726 25.0533 205.793 25.5333 205.926 25.96C206.086 26.36 206.38 26.76 206.806 27.16C207.26 27.5333 207.873 27.92 208.646 28.32C209.446 28.72 210.5 29.16 211.806 29.64C213.353 30.2267 214.66 30.8267 215.726 31.44C216.793 32.0533 217.646 32.7067 218.286 33.4C218.926 34.0933 219.38 34.84 219.646 35.64C219.94 36.44 220.086 37.32 220.086 38.28C220.086 39.5867 219.833 40.7467 219.326 41.76C218.82 42.7733 218.113 43.64 217.206 44.36C216.326 45.0533 215.26 45.5867 214.006 45.96C212.753 46.3067 211.393 46.48 209.926 46.48C207.98 46.48 206.206 46.2267 204.606 45.72C203.006 45.1867 201.66 44.4933 200.566 43.64L202.486 40.44ZM242.893 33.24H229.093V46H225.293V18H229.093V29.96H242.893V18H246.693V46H242.893V33.24Z" fill="black"/>
</svg>
